<?xml version="1.0" encoding="UTF-8" standalone="no"?>
<!-- Created with Inkscape (http://www.inkscape.org/) -->

<svg
   version="1.1"
   id="svg1"
   width="1440"
   height="828.14667"
   viewBox="0 0 1440 828.14667"
   sodipodi:docname="المعرفة-المجتمعية.ai"
   xmlns:inkscape="http://www.inkscape.org/namespaces/inkscape"
   xmlns:sodipodi="http://sodipodi.sourceforge.net/DTD/sodipodi-0.dtd"
   xmlns="http://www.w3.org/2000/svg"
   xmlns:svg="http://www.w3.org/2000/svg">
  <defs
     id="defs1">
    <clipPath
       clipPathUnits="userSpaceOnUse"
       id="clipPath9">
      <path
         d="M 0,621.11 H 1080 V 0 H 0 Z"
         transform="translate(-503.52541,-271.15571)"
         id="path9" />
    </clipPath>
    <clipPath
       clipPathUnits="userSpaceOnUse"
       id="clipPath11">
      <path
         d="M 0,621.11 H 1080 V 0 H 0 Z"
         id="path11" />
    </clipPath>
    <clipPath
       clipPathUnits="userSpaceOnUse"
       id="clipPath13">
      <path
         d="M 0,621.11 H 1080 V 0 H 0 Z"
         id="path13" />
    </clipPath>
    <clipPath
       clipPathUnits="userSpaceOnUse"
       id="clipPath15">
      <path
         d="M 0,621.11 H 1080 V 0 H 0 Z"
         id="path15" />
    </clipPath>
    <clipPath
       clipPathUnits="userSpaceOnUse"
       id="clipPath17">
      <path
         d="M 0,621.11 H 1080 V 0 H 0 Z"
         transform="translate(-346.53641,-377.83911)"
         id="path17" />
    </clipPath>
    <clipPath
       clipPathUnits="userSpaceOnUse"
       id="clipPath19">
      <path
         d="M 0,621.11 H 1080 V 0 H 0 Z"
         id="path19" />
    </clipPath>
    <clipPath
       clipPathUnits="userSpaceOnUse"
       id="clipPath21">
      <path
         d="M 0,621.11 H 1080 V 0 H 0 Z"
         transform="translate(-503.08301,-381.42891)"
         id="path21" />
    </clipPath>
    <clipPath
       clipPathUnits="userSpaceOnUse"
       id="clipPath23">
      <path
         d="M 0,621.11 H 1080 V 0 H 0 Z"
         id="path23" />
    </clipPath>
    <clipPath
       clipPathUnits="userSpaceOnUse"
       id="clipPath25">
      <path
         d="M 0,621.11 H 1080 V 0 H 0 Z"
         id="path25" />
    </clipPath>
    <clipPath
       clipPathUnits="userSpaceOnUse"
       id="clipPath27">
      <path
         d="M 0,621.11 H 1080 V 0 H 0 Z"
         id="path27" />
    </clipPath>
    <clipPath
       clipPathUnits="userSpaceOnUse"
       id="clipPath29">
      <path
         d="M 0,621.11 H 1080 V 0 H 0 Z"
         id="path29" />
    </clipPath>
    <clipPath
       clipPathUnits="userSpaceOnUse"
       id="clipPath31">
      <path
         d="M 0,621.11 H 1080 V 0 H 0 Z"
         id="path31" />
    </clipPath>
    <clipPath
       clipPathUnits="userSpaceOnUse"
       id="clipPath33">
      <path
         d="M 0,621.11 H 1080 V 0 H 0 Z"
         id="path33" />
    </clipPath>
    <clipPath
       clipPathUnits="userSpaceOnUse"
       id="clipPath35">
      <path
         d="M 0,621.11 H 1080 V 0 H 0 Z"
         transform="translate(-308.70281,-191.3501)"
         id="path35" />
    </clipPath>
    <clipPath
       clipPathUnits="userSpaceOnUse"
       id="clipPath37">
      <path
         d="M 0,621.11 H 1080 V 0 H 0 Z"
         transform="translate(-347.26881,-200.5113)"
         id="path37" />
    </clipPath>
    <clipPath
       clipPathUnits="userSpaceOnUse"
       id="clipPath39">
      <path
         d="M 0,621.11 H 1080 V 0 H 0 Z"
         transform="translate(-411.85071,-203.99121)"
         id="path39" />
    </clipPath>
    <clipPath
       clipPathUnits="userSpaceOnUse"
       id="clipPath41">
      <path
         d="M 0,621.11 H 1080 V 0 H 0 Z"
         id="path41" />
    </clipPath>
    <clipPath
       clipPathUnits="userSpaceOnUse"
       id="clipPath43">
      <path
         d="M 0,621.11 H 1080 V 0 H 0 Z"
         transform="translate(-427.46871,-209.0295)"
         id="path43" />
    </clipPath>
    <clipPath
       clipPathUnits="userSpaceOnUse"
       id="clipPath45">
      <path
         d="M 0,621.11 H 1080 V 0 H 0 Z"
         id="path45" />
    </clipPath>
    <clipPath
       clipPathUnits="userSpaceOnUse"
       id="clipPath47">
      <path
         d="M 0,621.11 H 1080 V 0 H 0 Z"
         id="path47" />
    </clipPath>
    <clipPath
       clipPathUnits="userSpaceOnUse"
       id="clipPath49">
      <path
         d="M 0,621.11 H 1080 V 0 H 0 Z"
         id="path49" />
    </clipPath>
    <clipPath
       clipPathUnits="userSpaceOnUse"
       id="clipPath51">
      <path
         d="M 0,621.11 H 1080 V 0 H 0 Z"
         transform="translate(-578.50681,-191.3501)"
         id="path51" />
    </clipPath>
    <clipPath
       clipPathUnits="userSpaceOnUse"
       id="clipPath53">
      <path
         d="M 0,621.11 H 1080 V 0 H 0 Z"
         transform="translate(-923.01872,-235.77101)"
         id="path53" />
    </clipPath>
  </defs>
  <sodipodi:namedview
     id="namedview1"
     pagecolor="#ffffff"
     bordercolor="#000000"
     borderopacity="0.25"
     inkscape:showpageshadow="2"
     inkscape:pageopacity="0.0"
     inkscape:pagecheckerboard="0"
     inkscape:deskcolor="#d1d1d1"
     inkscape:zoom="0.28497368"
     inkscape:cx="719.36469"
     inkscape:cy="412.31878"
     inkscape:window-width="1408"
     inkscape:window-height="776"
     inkscape:window-x="0"
     inkscape:window-y="25"
     inkscape:window-maximized="0"
     inkscape:current-layer="layer-MC0" />
  <g
     id="layer-MC0"
     inkscape:groupmode="layer"
     inkscape:label="المعرفة المجتمعية">
    <path
       id="path1"
       d="M 87.833994,352.21061 H 62.902871 v 22.20563 h 24.931123 z"
       style="fill:#639784;fill-opacity:1;fill-rule:nonzero;stroke:none;stroke-width:1.68765" />
    <path
       id="path2"
       d="M 53.210408,352.21061 H 28.280957 v 22.20563 h 24.929451 z"
       style="fill:#639784;fill-opacity:1;fill-rule:nonzero;stroke:none;stroke-width:1.68765" />
    <path
       id="path3"
       d="m 152.22908,514.52794 h 24.92443 v -22.20562 h -24.92443 z"
       style="fill:#639784;fill-opacity:1;fill-rule:nonzero;stroke:none;stroke-width:1.68765" />
    <path
       id="path4"
       d="m 117.60717,514.52794 h 24.9261 v -22.20562 h -24.9261 z"
       style="fill:#639784;fill-opacity:1;fill-rule:nonzero;stroke:none;stroke-width:1.68765" />
    <path
       id="path5"
       d="m 439.23304,352.21061 h -24.92443 v 22.20563 h 24.92443 z"
       style="fill:#639784;fill-opacity:1;fill-rule:nonzero;stroke:none;stroke-width:1.68765" />
    <path
       id="path6"
       d="m 473.85496,352.21061 h -24.92945 v 22.20563 h 24.92945 z"
       style="fill:#639784;fill-opacity:1;fill-rule:nonzero;stroke:none;stroke-width:1.68765" />
    <path
       id="path7"
       d="m 511.94074,514.52794 h 24.92443 v -22.20562 h -24.92443 z"
       style="fill:#639784;fill-opacity:1;fill-rule:nonzero;stroke:none;stroke-width:1.68765" />
    <path
       id="path8"
       d="m 0,0 c -2.174,-2.381 -5.296,-3.571 -9.368,-3.571 h -6.624 v 26.807 c 2.276,0.482 4.486,0.723 6.624,0.723 8.417,0 12.626,-4.726 12.626,-14.178 C 3.258,5.64 2.172,2.381 0,0 m -180.603,0 c -2.176,-2.381 -5.296,-3.571 -9.368,-3.571 h -6.624 v 26.807 c 2.276,0.482 4.486,0.723 6.624,0.723 8.416,0 12.626,-4.726 12.626,-14.178 0,-4.141 -1.086,-7.4 -3.258,-9.781 m -58.271,5.537 c -2.656,-2.76 -5.812,-5.038 -9.468,-6.832 -3.038,2.76 -6.074,6.159 -9.108,10.196 -3.038,4.036 -5.486,7.882 -7.348,11.541 6,2.688 11.108,4.035 15.318,4.035 4.068,0 7.517,-0.916 10.348,-2.743 2.828,-1.828 4.244,-4.295 4.244,-7.399 0,-3.106 -1.33,-6.038 -3.986,-8.798 M 36.066,-3.571 H 25.718 c -4.072,0 -7.176,1.001 -9.314,3.001 1.242,3.106 1.862,6.625 1.862,10.558 0,4.966 -1.174,9.468 -3.518,13.506 -2.348,4.036 -5.64,7.193 -9.884,9.469 -4.244,2.278 -9.16,3.416 -14.748,3.416 -4.763,0 -11.629,-0.691 -20.597,-2.069 V -3.571 h -6.21 c -2.276,0 -4.571,0.689 -6.881,2.07 -2.313,1.378 -3.917,3.276 -4.815,5.694 l -5.588,14.28 c -2.138,5.52 -5.64,9.885 -10.504,13.094 -4.865,3.207 -10.574,4.812 -17.128,4.812 -6.901,0 -13.352,-1.588 -19.355,-4.761 l 5.278,-11.798 c 3.588,1.723 7.555,2.588 11.901,2.588 3.935,0 7.315,-0.917 10.144,-2.743 2.828,-1.831 4.932,-4.435 6.312,-7.815 l 4.763,-11.489 c -4.141,-1.587 -8.299,-2.639 -12.471,-3.155 -4.176,-0.519 -8.884,-0.777 -14.129,-0.777 h -18.319 v 0 h -10e-4 c -4.002,0 -6.97,0.293 -8.9,0.88 -1.934,0.585 -3.658,1.708 -5.176,3.364 0.345,1.863 0.517,3.655 0.517,5.382 v 30.324 h -14.489 V 8.331 c 0,-3.588 -0.983,-6.468 -2.95,-8.641 -1.966,-2.174 -4.33,-3.261 -7.089,-3.261 h -9.315 c -4.071,0 -7.176,1.001 -9.313,3.001 1.24,3.106 1.862,6.625 1.862,10.558 0,4.966 -1.174,9.468 -3.519,13.506 -2.347,4.036 -5.64,7.193 -9.885,9.469 -4.243,2.278 -9.158,3.416 -14.748,3.416 -4.761,0 -11.628,-0.691 -20.595,-2.069 V -3.571 h -6.21 c -0.051,0 -0.08,-0.018 -0.127,-0.022 -0.064,0.005 -0.113,0.022 -0.184,0.022 -5.727,0 -10.247,0.276 -13.558,0.828 3.311,2.758 5.933,5.882 7.867,9.366 1.93,3.485 2.897,6.918 2.897,10.299 0,3.655 -1.295,7.142 -3.883,10.453 -2.585,3.312 -6.052,5.986 -10.4,8.021 -4.347,2.035 -9.004,3.052 -13.972,3.052 -4.14,0 -8.212,-0.568 -12.212,-1.705 -4.003,-1.141 -8.661,-2.849 -13.973,-5.125 l -3.208,-13.454 c 5.589,-9.248 10.349,-16.146 14.283,-20.7 -4.072,-0.69 -9.973,-1.035 -17.699,-1.035 -0.022,0 -0.035,-0.007 -0.056,-0.008 -0.018,0.001 -0.029,0.008 -0.047,0.008 -4.002,0 -6.97,0.293 -8.9,0.88 -1.933,0.585 -3.659,1.708 -5.175,3.364 0.344,1.863 0.516,3.655 0.516,5.382 v 30.324 h -14.49 V 8.331 c 0,-3.588 -0.982,-6.468 -2.948,-8.641 -1.966,-2.174 -4.33,-3.261 -7.09,-3.261 h -9.314 -2.072 c -2.622,0 -4.605,0.74 -5.949,2.225 -1.347,1.484 -2.02,4.02 -2.02,7.608 l 0.105,28.048 c -8.971,1.378 -15.836,2.069 -20.597,2.069 -5.588,0 -10.506,-1.138 -14.749,-3.416 -4.243,-2.276 -7.537,-5.433 -9.885,-9.469 -2.344,-4.038 -3.516,-8.54 -3.516,-13.506 0,-5.176 1.101,-9.73 3.31,-13.662 2.207,-3.934 5.244,-6.969 9.108,-9.108 3.863,-2.138 8.176,-3.209 12.938,-3.209 h 2.07 l 5.588,12.42 h -5.382 c -4.072,0 -7.194,1.19 -9.366,3.571 -2.174,2.381 -3.26,5.64 -3.26,9.781 0,9.452 4.207,14.178 12.626,14.178 1.932,0 4.104,-0.241 6.52,-0.723 V 3.984 c 0,-6.141 1.553,-11.005 4.66,-14.593 3.103,-3.588 7.588,-5.382 13.452,-5.382 h 6.419 13.662 c 3.312,0 6.33,0.691 9.055,2.069 2.725,1.381 4.985,3.313 6.78,5.797 2.345,-2.897 4.83,-4.917 7.452,-6.055 2.622,-1.138 6.106,-1.742 10.452,-1.811 0.018,0 0.029,0.008 0.047,0.008 0.021,0 0.034,-0.008 0.056,-0.008 12.971,0 24.495,1.278 34.567,3.829 8.488,-2.551 18.25,-3.829 29.291,-3.829 0.071,0 0.12,0.018 0.185,0.022 0.046,-0.003 0.075,-0.022 0.126,-0.022 h 29.807 c 7.038,0 12.936,2.278 17.699,6.832 2.135,-2.278 4.569,-3.986 7.297,-5.124 2.722,-1.138 5.258,-1.708 7.605,-1.708 h 13.662 c 3.312,0 6.33,0.691 9.056,2.069 2.726,1.381 4.984,3.313 6.78,5.797 2.344,-2.897 4.83,-4.917 7.452,-6.055 2.622,-1.138 6.106,-1.742 10.452,-1.811 h 10e-4 v 0 h 18.319 c 5.245,0 10.661,0.639 16.249,1.914 5.588,1.276 10.626,3.122 15.111,5.537 4.485,-4.966 11.524,-7.451 21.113,-7.451 h 29.807 c 7.038,0 12.936,2.278 17.7,6.832 2.136,-2.278 4.568,-3.986 7.296,-5.124 2.724,-1.138 5.259,-1.708 7.606,-1.708 h 24.735 v 79.28 H 36.066 Z"
       style="fill:#639784;fill-opacity:1;fill-rule:nonzero;stroke:none"
       transform="matrix(1.6725563,0,0,-1.7028854,658.99424,449.58379)"
       clip-path="url(#clipPath9)" />
    <path
       id="path10"
       d="m 571.574,255.165 h 14.49 v 79.28 h -14.49 z"
       style="fill:#639784;fill-opacity:1;fill-rule:nonzero;stroke:none"
       transform="matrix(1.6725563,0,0,-1.7028854,-183.18033,911.3309)"
       clip-path="url(#clipPath11)" />
    <path
       id="path12"
       d="m 162.283,438.917 h -14.984 v -13.109 h 14.984 z"
       style="fill:#639784;fill-opacity:1;fill-rule:nonzero;stroke:none"
       transform="matrix(1.6725563,0,0,-1.7028854,-183.18033,911.3309)"
       clip-path="url(#clipPath13)" />
    <path
       id="path14"
       d="m 141.472,438.917 h -14.984 v -13.109 h 14.984 z"
       style="fill:#639784;fill-opacity:1;fill-rule:nonzero;stroke:none"
       transform="matrix(1.6725563,0,0,-1.7028854,-183.18033,911.3309)"
       clip-path="url(#clipPath15)" />
    <path
       id="path16"
       d="m 0,0 h -5.411 c -4.093,0.138 -7.423,1.421 -9.988,3.849 -2.567,2.429 -3.85,5.619 -3.85,9.574 0,9.503 4.23,14.254 12.694,14.254 1.94,0 4.127,-0.242 6.555,-0.727 z m -20.551,36.781 c -4.336,-2.253 -7.735,-5.289 -10.196,-9.104 -2.463,-3.815 -3.694,-7.943 -3.694,-12.381 0,-6.661 2.218,-11.758 6.658,-15.296 h -143.879 -2.084 c -2.636,0 -4.63,0.744 -5.981,2.236 -1.354,1.492 -2.031,4.042 -2.031,7.649 l 0.106,28.198 c -9.02,1.386 -15.921,2.081 -20.707,2.081 -5.618,0 -10.562,-1.144 -14.829,-3.434 -4.264,-2.288 -7.578,-5.463 -9.937,-9.52 -2.357,-4.059 -3.536,-8.586 -3.536,-13.579 0,-5.204 1.108,-9.782 3.329,-13.735 2.218,-3.955 5.272,-7.007 9.156,-9.156 3.884,-2.15 8.22,-3.227 13.008,-3.227 h 2.081 L -197.469,0 h -5.411 c -4.094,0 -7.232,1.196 -9.416,3.59 -2.186,2.394 -3.278,5.67 -3.278,9.833 0,9.503 4.23,14.254 12.694,14.254 1.943,0 4.126,-0.242 6.555,-0.727 V 7.595 c 0,-6.174 1.561,-11.064 4.684,-14.671 3.121,-3.607 7.63,-5.411 13.526,-5.411 h 6.453 186.23 v 50.57 c -8.88,1.386 -15.749,2.081 -20.603,2.081 -5.342,0 -10.182,-1.129 -14.516,-3.383"
       style="fill:#639784;fill-opacity:1;fill-rule:nonzero;stroke:none"
       transform="matrix(1.6725563,0,0,-1.7028854,396.42131,267.91418)"
       clip-path="url(#clipPath17)" />
    <path
       id="path18"
       d="m 346.641,438.917 h -14.984 v -13.109 h 14.984 z"
       style="fill:#639784;fill-opacity:1;fill-rule:nonzero;stroke:none"
       transform="matrix(1.6725563,0,0,-1.7028854,-183.18033,911.3309)"
       clip-path="url(#clipPath19)" />
    <path
       id="path20"
       d="m 0,0 c -2.186,-2.394 -5.324,-3.59 -9.418,-3.59 h -6.66 v 26.95 c 2.288,0.485 4.51,0.727 6.66,0.727 8.462,0 12.694,-4.751 12.694,-14.253 C 3.276,5.671 2.184,2.394 0,0 m -58.583,5.567 c -2.671,-2.775 -5.843,-5.065 -9.519,-6.869 -3.054,2.775 -6.105,6.192 -9.157,10.251 -3.053,4.057 -5.514,7.924 -7.387,11.602 6.033,2.703 11.167,4.057 15.4,4.057 4.091,0 7.558,-0.921 10.404,-2.757 2.843,-1.838 4.266,-4.319 4.266,-7.439 0,-3.123 -1.335,-6.071 -4.007,-8.845 M 36.26,-3.59 H 25.856 c -4.094,0 -7.215,1.006 -9.364,3.017 1.248,3.123 1.872,6.661 1.872,10.614 0,4.994 -1.18,9.52 -3.537,13.579 -2.359,4.057 -5.67,7.232 -9.937,9.52 -4.267,2.29 -9.209,3.434 -14.827,3.434 -4.788,0 -11.691,-0.694 -20.707,-2.081 V -3.59 h -6.243 c -0.051,0 -0.081,-0.018 -0.127,-0.022 -0.065,0.004 -0.115,0.022 -0.185,0.022 -5.759,0 -10.303,0.277 -13.631,0.833 3.328,2.772 5.965,5.912 7.909,9.416 1.94,3.503 2.913,6.955 2.913,10.354 0,3.675 -1.301,7.18 -3.903,10.508 -2.6,3.331 -6.086,6.019 -10.456,8.065 -4.371,2.045 -9.054,3.068 -14.049,3.068 -4.16,0 -8.254,-0.57 -12.277,-1.714 -4.024,-1.147 -8.707,-2.864 -14.048,-5.152 l -3.225,-13.527 c 5.618,-9.297 10.404,-16.232 14.359,-20.811 -4.092,-0.694 -10.026,-1.04 -17.793,-1.04 -0.023,0 -0.037,-0.008 -0.059,-0.008 -0.017,0 -0.025,0.008 -0.043,0.008 -4.788,0 -8.291,1.49 -10.51,4.475 v 34.649 h -14.567 v -48.905 c 0,-3.398 -0.486,-6.051 -1.458,-7.961 -0.971,-1.905 -2.429,-3.276 -4.368,-4.109 -1.945,-0.832 -4.615,-1.492 -8.013,-1.976 l 5.827,-13.008 c 6.659,0.765 12.086,3.278 16.284,7.545 4.195,4.265 6.295,10.908 6.295,19.926 v 0.104 c 3.605,-2.15 7.111,-3.227 10.51,-3.227 0.019,0 0.028,0.008 0.046,0.008 0.021,0 0.036,-0.008 0.056,-0.008 13.041,0 24.625,1.285 34.753,3.85 8.534,-2.565 18.348,-3.85 29.448,-3.85 0.07,0 0.12,0.018 0.185,0.023 0.046,-0.004 0.077,-0.023 0.127,-0.023 h 29.966 c 7.076,0 13.006,2.29 17.795,6.869 2.147,-2.29 4.592,-4.007 7.335,-5.151 2.738,-1.144 5.287,-1.718 7.647,-1.718 H 50.723 V 63.628 H 36.26 Z"
       style="fill:#639784;fill-opacity:1;fill-rule:nonzero;stroke:none"
       transform="matrix(1.6725563,0,0,-1.7028854,658.25431,261.80117)"
       clip-path="url(#clipPath21)" />
    <path
       id="path22"
       d="m 571.497,365.352 h 14.568 v 79.705 h -14.568 z"
       style="fill:#639784;fill-opacity:1;fill-rule:nonzero;stroke:none"
       transform="matrix(1.6725563,0,0,-1.7028854,-183.18033,911.3309)"
       clip-path="url(#clipPath23)" />
    <path
       id="path24"
       d="m 124.303,176.053 h 6.595 v 5.77 h -6.595 z"
       style="fill:#639784;fill-opacity:1;fill-rule:nonzero;stroke:none"
       transform="matrix(1.6725563,0,0,-1.7028854,-183.18033,911.3309)"
       clip-path="url(#clipPath25)" />
    <path
       id="path26"
       d="m 133.464,176.053 h 6.595 v 5.77 h -6.595 z"
       style="fill:#639784;fill-opacity:1;fill-rule:nonzero;stroke:none"
       transform="matrix(1.6725563,0,0,-1.7028854,-183.18033,911.3309)"
       clip-path="url(#clipPath27)" />
    <path
       id="path28"
       d="m 250.03,218.236 h -6.595 v -5.77 h 6.595 z"
       style="fill:#639784;fill-opacity:1;fill-rule:nonzero;stroke:none"
       transform="matrix(1.6725563,0,0,-1.7028854,-183.18033,911.3309)"
       clip-path="url(#clipPath29)" />
    <path
       id="path30"
       d="m 259.19,218.236 h -6.595 v -5.77 h 6.595 z"
       style="fill:#639784;fill-opacity:1;fill-rule:nonzero;stroke:none"
       transform="matrix(1.6725563,0,0,-1.7028854,-183.18033,911.3309)"
       clip-path="url(#clipPath31)" />
    <path
       id="path32"
       d="m 269.268,176.053 h 6.595 v 5.77 h -6.595 z"
       style="fill:#639784;fill-opacity:1;fill-rule:nonzero;stroke:none"
       transform="matrix(1.6725563,0,0,-1.7028854,-183.18033,911.3309)"
       clip-path="url(#clipPath33)" />
    <path
       id="path34"
       d="m 0,0 h -7.603 v 11.863 c 1.008,0.214 1.984,0.32 2.931,0.32 3.724,0 5.588,-2.092 5.588,-6.274 C 0.916,4.076 0.611,2.107 0,0 M -80.45,1.58 C -81.412,0.526 -82.794,0 -84.596,0 h -2.93 v 11.863 c 1.007,0.214 1.984,0.32 2.93,0.32 3.725,0 5.588,-2.092 5.588,-6.274 0,-1.833 -0.481,-3.275 -1.442,-4.329 m -25.788,2.451 c -1.176,-1.222 -2.573,-2.229 -4.191,-3.024 -1.344,1.222 -2.687,2.727 -4.031,4.512 -1.344,1.786 -2.428,3.489 -3.251,5.107 2.656,1.191 4.916,1.786 6.777,1.786 1.802,0 3.329,-0.405 4.581,-1.213 1.252,-0.809 1.878,-1.901 1.878,-3.276 0,-1.373 -0.588,-2.672 -1.763,-3.892 M 1.625,16.169 c -1.877,1.007 -4.052,1.51 -6.526,1.51 -2.107,0 -5.145,-0.304 -9.115,-0.915 V 0 h -2.746 c -1.009,0 -2.024,0.305 -3.047,0.917 -1.024,0.609 -1.734,1.449 -2.13,2.518 l -2.473,6.321 c -0.947,2.443 -2.496,4.375 -4.649,5.793 -2.153,1.42 -4.68,2.13 -7.581,2.13 -3.052,0 -5.907,-0.702 -8.565,-2.106 l 2.337,-5.221 c 1.587,0.763 3.343,1.145 5.268,1.145 1.739,0 3.235,-0.406 4.488,-1.215 1.251,-0.809 2.183,-1.962 2.794,-3.458 l 2.106,-5.083 C -30.045,1.038 -31.886,0.573 -33.733,0.344 -35.58,0.115 -37.665,0 -39.984,0 h -8.108 c 0,0 0,0 0,0 -0.001,0 -0.001,0 -0.001,0 -1.771,0 -3.085,0.13 -3.939,0.389 -0.854,0.26 -1.618,0.757 -2.29,1.489 0.153,0.825 0.23,1.618 0.23,2.382 v 13.419 h -6.413 V 5.267 C -60.505,3.68 -60.94,2.405 -61.81,1.443 -62.68,0.481 -63.727,0 -64.947,0 h -4.122 c -1.801,0 -3.176,0.443 -4.122,1.328 0.549,1.375 0.825,2.932 0.825,4.673 0,2.198 -0.521,4.191 -1.557,5.977 -1.04,1.786 -2.498,3.182 -4.375,4.191 -1.878,1.007 -4.053,1.51 -6.527,1.51 -2.107,0 -5.145,-0.304 -9.115,-0.915 V 0 h -2.748 c -0.034,0 -0.055,-0.011 -0.085,-0.015 -0.022,10e-4 -0.029,0.015 -0.053,0.015 -2.535,0 -4.534,0.122 -6.001,0.367 1.467,1.221 2.626,2.603 3.482,4.145 0.854,1.541 1.283,3.06 1.283,4.557 0,1.619 -0.573,3.161 -1.718,4.626 -1.146,1.465 -2.679,2.649 -4.604,3.55 -1.922,0.899 -3.984,1.351 -6.182,1.351 -1.833,0 -3.635,-0.252 -5.405,-0.756 -1.771,-0.503 -3.832,-1.26 -6.184,-2.267 l -1.42,-5.954 c 2.474,-4.092 4.581,-7.145 6.322,-9.161 C -119.055,0.153 -121.666,0 -125.087,0 c -0.006,0 -0.008,-0.005 -0.015,-0.005 -0.011,0 -0.018,0.005 -0.03,0.005 h -5.954 -5.953 c -0.001,0 -0.001,0 -0.001,0 -0.001,0 -0.001,0 -0.001,0 h -5.954 -5.954 -5.953 -5.954 c -0.001,0 -0.001,0 -0.001,0 0,0 0,0 -0.001,0 h 26.748 -5.954 -5.953 -0.916 c -1.162,0 -2.038,0.328 -2.634,0.986 -0.595,0.656 -0.893,1.778 -0.893,3.366 v 18.366 h -9.847 c -3.878,0 -6.718,-1.015 -8.52,-3.046 -1.802,-2.031 -2.703,-4.573 -2.703,-7.626 V 0 h -8.152 c -4.489,0 -6.733,2.045 -6.733,6.138 v 11.084 h -6.413 V 5.13 c 0,-3.054 0.901,-5.588 2.703,-7.603 1.802,-2.016 4.641,-3.023 8.52,-3.023 h 16.488 v 16.535 c 0,4.121 2.244,6.183 6.733,6.183 h 1.511 V 3.344 c 0,-2.688 0.687,-4.832 2.062,-6.436 1.373,-1.602 3.359,-2.404 5.954,-2.404 h 2.84 5.953 5.954 -26.748 c 0.001,0 0.001,0 0.001,0 0,0 0,0 0.001,0 h 5.954 5.953 5.954 5.954 c 0,0 0,0 0.001,0 0,0 0,0 0.001,0 h 5.953 5.954 c 0.012,0 0.019,0.005 0.03,0.005 0.007,0 0.009,-0.005 0.015,-0.005 5.741,0 10.841,0.566 15.299,1.695 3.756,-1.129 8.077,-1.695 12.962,-1.695 0.024,0 0.031,0.014 0.053,0.015 0.03,-0.004 0.051,-0.015 0.085,-0.015 h 13.191 c 3.115,0 5.725,1.007 7.833,3.023 0.946,-1.008 2.022,-1.764 3.229,-2.268 1.205,-0.503 2.327,-0.755 3.364,-0.755 0.001,0 0.001,0 0.001,0 h 6.046 c 1.465,0 2.802,0.306 4.007,0.915 1.206,0.611 2.206,1.467 3.001,2.566 1.038,-1.283 2.137,-2.176 3.297,-2.679 1.161,-0.505 2.703,-0.771 4.626,-0.802 0,0 0,0 0.001,0 0,0 0,0 0,0 h 8.108 c 2.319,0 4.717,0.283 7.19,0.847 2.474,0.566 4.703,1.382 6.687,2.451 1.985,-2.199 5.099,-3.298 9.343,-3.298 0,0 0,0 0,0 H 4.809 c 1.832,4.793 2.748,8.626 2.748,11.497 0,2.198 -0.52,4.191 -1.556,5.977 -1.04,1.786 -2.498,3.182 -4.376,4.191"
       style="fill:#639784;fill-opacity:1;fill-rule:nonzero;stroke:none"
       transform="matrix(1.6725563,0,0,-1.7028854,333.14247,585.48359)"
       clip-path="url(#clipPath35)" />
    <path
       id="path36"
       d="M 0,0 C 1.588,0 3.465,-0.474 5.633,-1.42 L 7.695,3.939 C 5.741,4.732 4.123,5.312 2.84,5.678 c -1.283,0.368 -2.611,0.55 -3.984,0.55 -2.291,0 -4.314,-0.503 -6.069,-1.51 -1.757,-1.008 -3.109,-2.352 -4.055,-4.031 -0.946,-1.68 -1.42,-3.482 -1.42,-5.405 0,-1.466 0.305,-2.947 0.917,-4.443 h -3.894 l -2.29,-5.496 H 7.512 v 5.496 H -5.451 c -0.55,1.191 -0.824,2.427 -0.824,3.71 0,1.649 0.511,2.97 1.534,3.963 C -3.717,-0.497 -2.137,0 0,0"
       style="fill:#639784;fill-opacity:1;fill-rule:nonzero;stroke:none"
       transform="matrix(1.6725563,0,0,-1.7028854,397.64629,569.88312)"
       clip-path="url(#clipPath37)" />
    <path
       id="path38"
       d="m 0,0 c -2.077,1.833 -5.13,2.748 -9.161,2.748 h -8.336 l 14.108,14.2 h -7.834 l -12.869,-14.2 2.474,-5.496 h 11.312 c 2.291,0 4.03,-0.434 5.221,-1.305 1.191,-0.87 1.787,-2.313 1.787,-4.328 0,-1.161 -0.291,-2.581 -0.87,-4.26 h -21.894 -5.954 26.748 c 0,0 0,0 -0.001,0 0,0 0,0 0,0 h -5.954 -5.954 -5.954 c 0,0 0,0 -0.001,0 0,0 0,0 0,0 h -5.954 -5.954 -5.954 c 0,0 0,0 -10e-4,0 0,0 0,0 0,0 h -0.916 c -1.16,0 -2.038,0.328 -2.633,0.985 -0.596,0.657 -0.893,1.779 -0.893,3.367 v 25.237 h -6.414 V -9.297 c 0,-2.688 0.689,-4.833 2.062,-6.436 1.375,-1.602 3.359,-2.404 5.954,-2.404 h 2.84 c 0,0 0,0 0,0 10e-4,0 10e-4,0 10e-4,0 h 5.954 5.954 5.954 c 0,0 0,0 0,0 0.001,0 0.001,0 0.001,0 h 5.954 5.954 5.954 c 0,0 0,0 0,0 0.001,0 0.001,0 0.001,0 h -26.748 5.954 26.473 c 0.642,1.343 1.252,2.977 1.833,4.901 0.58,1.923 0.87,3.694 0.87,5.313 C 3.114,-4.473 2.076,-1.831 0,0"
       style="fill:#639784;fill-opacity:1;fill-rule:nonzero;stroke:none"
       transform="matrix(1.6725563,0,0,-1.7028854,505.66315,563.95724)"
       clip-path="url(#clipPath39)" />
    <path
       id="path40"
       d="m 434.019,218.694 h -6.595 v -5.77 h 6.595 z"
       style="fill:#639784;fill-opacity:1;fill-rule:nonzero;stroke:none"
       transform="matrix(1.6725563,0,0,-1.7028854,-183.18033,911.3309)"
       clip-path="url(#clipPath41)" />
    <path
       id="path42"
       d="m 0,0 6.503,-16.901 c -2.106,-0.519 -5.022,-0.778 -8.747,-0.778 h -7.741 l 2.474,-5.496 h 6.046 c 2.84,0 5.548,0.176 8.129,0.526 2.58,0.351 4.633,0.908 6.161,1.672 l 1.099,2.611 L 6.871,0 Z"
       style="fill:#639784;fill-opacity:1;fill-rule:nonzero;stroke:none"
       transform="matrix(1.6725563,0,0,-1.7028854,531.78513,555.37761)"
       clip-path="url(#clipPath43)" />
    <path
       id="path44"
       d="m 474.874,218.236 h -6.595 v -5.77 h 6.595 z"
       style="fill:#639784;fill-opacity:1;fill-rule:nonzero;stroke:none"
       transform="matrix(1.6725563,0,0,-1.7028854,-183.18033,911.3309)"
       clip-path="url(#clipPath45)" />
    <path
       id="path46"
       d="m 465.712,218.236 h -6.595 v -5.77 h 6.595 z"
       style="fill:#639784;fill-opacity:1;fill-rule:nonzero;stroke:none"
       transform="matrix(1.6725563,0,0,-1.7028854,-183.18033,911.3309)"
       clip-path="url(#clipPath47)" />
    <path
       id="path48"
       d="m 557.667,218.236 h -6.595 v -5.77 h 6.595 z"
       style="fill:#639784;fill-opacity:1;fill-rule:nonzero;stroke:none"
       transform="matrix(1.6725563,0,0,-1.7028854,-183.18033,911.3309)"
       clip-path="url(#clipPath49)" />
    <path
       id="path50"
       d="m 0,0 h -7.603 v 11.863 c 1.008,0.214 1.984,0.32 2.931,0.32 3.724,0 5.588,-2.092 5.588,-6.274 C 0.916,4.076 0.611,2.107 0,0 M -44.084,1.58 C -45.046,0.526 -46.428,0 -48.229,0 h -15.298 v 6.963 c 2.321,1.649 4.557,2.915 6.71,3.8 2.153,0.887 4.557,1.328 7.214,1.328 2.106,0 3.786,-0.564 5.038,-1.694 1.252,-1.129 1.894,-2.627 1.924,-4.488 0,-1.833 -0.481,-3.275 -1.443,-4.329 M 6,11.978 c -1.039,1.786 -2.497,3.182 -4.375,4.191 -1.877,1.007 -4.052,1.51 -6.526,1.51 -2.107,0 -5.145,-0.304 -9.115,-0.915 V 0 h -2.748 c -2.045,0 -3.526,0.564 -4.442,1.695 0.182,0.824 0.274,1.678 0.274,2.565 v 12.962 h -6.411 V 5.267 c 0,-1.587 -0.436,-2.862 -1.307,-3.824 C -29.519,0.481 -30.565,0 -31.787,0 h -0.916 c -1.801,0 -3.175,0.443 -4.121,1.328 0.55,1.375 0.824,2.932 0.824,4.673 0,2.229 -0.489,4.229 -1.465,6 -0.979,1.77 -2.406,3.159 -4.283,4.168 -1.878,1.007 -4.115,1.51 -6.71,1.51 -4.764,0 -9.786,-1.755 -15.069,-5.267 v 4.81 h -6.412 V 0 h 31.392 c -0.001,0 -0.001,0 -0.001,0 0,0 0,0 -10e-4,0 h -5.954 -5.954 -5.953 -5.954 c -0.001,0 -0.001,0 -0.001,0 0,0 0,0 -10e-4,0 h -5.954 -5.953 -5.954 c -10e-4,0 -10e-4,0 -10e-4,0 0,0 0,0 -0.001,0 h -5.954 -5.954 -5.953 c -10e-4,0 -10e-4,0 -10e-4,0 0,0 0,0 -0.001,0 h -0.915 c -1.161,0 -2.038,0.328 -2.633,0.986 -0.597,0.656 -0.894,1.778 -0.894,3.366 l 0.045,12.412 c -3.969,0.611 -7.008,0.915 -9.114,0.915 -2.473,0 -4.649,-0.503 -6.527,-1.51 -1.878,-1.009 -3.336,-2.405 -4.374,-4.191 -1.038,-1.786 -1.557,-3.779 -1.557,-5.977 0,-2.291 0.487,-4.306 1.466,-6.046 0.976,-1.741 2.32,-3.085 4.031,-4.031 1.71,-0.946 3.618,-1.42 5.725,-1.42 h 0.915 L -109.45,0 h -2.382 c -1.802,0 -3.183,0.526 -4.145,1.58 -0.962,1.054 -1.443,2.496 -1.443,4.329 0,4.182 1.863,6.274 5.588,6.274 0.854,0 1.816,-0.106 2.886,-0.32 V 3.344 c 0,-2.719 0.687,-4.87 2.06,-6.458 1.375,-1.589 3.359,-2.382 5.956,-2.382 h 2.838 c 0.001,0 0.001,0 0.001,0 0,0 0,0 10e-4,0 h 5.953 5.954 5.954 c 0.001,0 0.001,0 0.001,0 0,0 0,0 10e-4,0 h 5.954 5.953 5.954 c 10e-4,0 10e-4,0 10e-4,0 0,0 0,0 0.001,0 h 5.954 5.953 5.954 5.954 c 10e-4,0 10e-4,0 10e-4,0 0,0 0,0 0.001,0 h -8.582 c 3.114,0 5.725,1.007 7.831,3.023 0.946,-1.008 2.022,-1.764 3.229,-2.268 1.206,-0.503 2.329,-0.755 3.366,-0.755 h 2.84 c 2.748,0 4.947,0.977 6.596,2.932 0.946,-0.979 2.014,-1.71 3.206,-2.199 1.191,-0.488 2.29,-0.733 3.297,-0.733 H 4.809 c 1.832,4.793 2.748,8.626 2.748,11.497 0,2.198 -0.52,4.191 -1.557,5.977"
       style="fill:#639784;fill-opacity:1;fill-rule:nonzero;stroke:none"
       transform="matrix(1.6725563,0,0,-1.7028854,784.40486,585.48359)"
       clip-path="url(#clipPath51)" />
    <path
       id="path52"
       d="m 0,0 c -10.046,-13.178 -28.792,-16.071 -43.143,-7.786 l -12.612,7.282 v 64.198 h -1.506 c -18.259,0 -33.06,-14.801 -33.06,-33.06 v -69.091 c 0,-19.392 -17.018,-34.886 -36.902,-32.332 -16.436,2.111 -28.314,16.899 -28.314,33.47 v 14.563 l 55.597,32.099 -0.753,1.305 c -9.129,15.812 -29.348,21.229 -45.161,12.1 l -59.835,-34.546 c -16.793,-9.695 -38.721,-2.705 -46.451,15.793 -6.389,15.289 0.478,32.97 14.829,41.255 l 12.612,7.282 55.597,-32.099 0.753,1.305 c 9.13,15.812 3.712,36.031 -12.1,45.16 l -59.835,34.546 c -16.794,9.696 -21.704,32.181 -9.549,48.124 10.046,13.178 28.792,16.071 43.142,7.786 l 12.613,-7.282 V 85.874 h 1.506 c 18.258,0 33.06,14.801 33.06,33.06 v 69.091 c 0,19.392 17.017,34.886 36.902,32.332 16.435,-2.111 28.314,-16.899 28.314,-33.47 v -14.563 l -55.597,-32.099 0.753,-1.305 c 9.129,-15.812 29.348,-21.23 45.16,-12.1 l 59.835,34.545 c 16.794,9.696 38.721,2.705 46.451,-15.792 6.39,-15.289 -0.478,-32.97 -14.828,-41.256 l -12.612,-7.281 -55.598,32.099 -0.753,-1.305 c -9.129,-15.812 -3.711,-36.031 12.101,-45.16 L -9.549,48.124 C 7.245,38.428 12.154,15.943 0,0 m 9.195,77.096 c 30.317,20.013 39.56,61.217 19.372,92.509 -18.912,29.316 -57.62,38.173 -88.43,22.479 -2.173,36.262 -33.236,64.868 -70.429,63.031 -34.845,-1.72 -61.869,-30.814 -63.683,-65.343 -32.49,16.249 -72.795,3.651 -89.801,-29.477 -15.932,-31.038 -4.249,-68.988 24.748,-87.823 -30.317,-20.013 -39.56,-61.218 -19.373,-92.509 18.913,-29.316 57.621,-38.173 88.431,-22.479 2.173,-36.262 33.236,-64.868 70.428,-63.032 34.846,1.721 61.87,30.814 63.683,65.344 32.49,-16.249 72.796,-3.651 89.801,29.477 15.933,31.037 4.25,68.988 -24.747,87.823"
       style="fill:#35a67b;fill-opacity:1;fill-rule:nonzero;stroke:none"
       transform="matrix(1.6725563,0,0,-1.7028854,1360.6204,509.83988)"
       clip-path="url(#clipPath53)" />
  </g>
</svg>
