<?xml version="1.0" encoding="UTF-8" standalone="no"?>
<!-- Created with Inkscape (http://www.inkscape.org/) -->

<svg
   version="1.1"
   id="svg1"
   width="1440"
   height="828.14667"
   viewBox="0 0 1440 828.14667"
   sodipodi:docname="المعرفة-المجتمعية.ai"
   xmlns:inkscape="http://www.inkscape.org/namespaces/inkscape"
   xmlns:sodipodi="http://sodipodi.sourceforge.net/DTD/sodipodi-0.dtd"
   xmlns="http://www.w3.org/2000/svg"
   xmlns:svg="http://www.w3.org/2000/svg">
  <defs
     id="defs1">
    <clipPath
       clipPathUnits="userSpaceOnUse"
       id="clipPath53">
      <path
         d="M 0,621.11 H 1080 V 0 H 0 Z"
         transform="translate(-923.01872,-235.77101)"
         id="path53" />
    </clipPath>
  </defs>
  <sodipodi:namedview
     id="namedview1"
     pagecolor="#ffffff"
     bordercolor="#000000"
     borderopacity="0.25"
     inkscape:showpageshadow="2"
     inkscape:pageopacity="0.0"
     inkscape:pagecheckerboard="0"
     inkscape:deskcolor="#d1d1d1"
     inkscape:zoom="0.28497368"
     inkscape:cx="719.36469"
     inkscape:cy="412.31878"
     inkscape:window-width="1408"
     inkscape:window-height="776"
     inkscape:window-x="0"
     inkscape:window-y="25"
     inkscape:window-maximized="0"
     inkscape:current-layer="layer-MC0" />
  <g
     id="layer-MC0"
     inkscape:groupmode="layer"
     inkscape:label="المعرفة المجتمعية">
    <path
       id="path52"
       d="m 0,0 c -10.046,-13.178 -28.792,-16.071 -43.143,-7.786 l -12.612,7.282 v 64.198 h -1.506 c -18.259,0 -33.06,-14.801 -33.06,-33.06 v -69.091 c 0,-19.392 -17.018,-34.886 -36.902,-32.332 -16.436,2.111 -28.314,16.899 -28.314,33.47 v 14.563 l 55.597,32.099 -0.753,1.305 c -9.129,15.812 -29.348,21.229 -45.161,12.1 l -59.835,-34.546 c -16.793,-9.695 -38.721,-2.705 -46.451,15.793 -6.389,15.289 0.478,32.97 14.829,41.255 l 12.612,7.282 55.597,-32.099 0.753,1.305 c 9.13,15.812 3.712,36.031 -12.1,45.16 l -59.835,34.546 c -16.794,9.696 -21.704,32.181 -9.549,48.124 10.046,13.178 28.792,16.071 43.142,7.786 l 12.613,-7.282 V 85.874 h 1.506 c 18.258,0 33.06,14.801 33.06,33.06 v 69.091 c 0,19.392 17.017,34.886 36.902,32.332 16.435,-2.111 28.314,-16.899 28.314,-33.47 v -14.563 l -55.597,-32.099 0.753,-1.305 c 9.129,-15.812 29.348,-21.23 45.16,-12.1 l 59.835,34.545 c 16.794,9.696 38.721,2.705 46.451,-15.792 6.39,-15.289 -0.478,-32.97 -14.828,-41.256 l -12.612,-7.281 -55.598,32.099 -0.753,-1.305 c -9.129,-15.812 -3.711,-36.031 12.101,-45.16 L -9.549,48.124 C 7.245,38.428 12.154,15.943 0,0 m 9.195,77.096 c 30.317,20.013 39.56,61.217 19.372,92.509 -18.912,29.316 -57.62,38.173 -88.43,22.479 -2.173,36.262 -33.236,64.868 -70.429,63.031 -34.845,-1.72 -61.869,-30.814 -63.683,-65.343 -32.49,16.249 -72.795,3.651 -89.801,-29.477 -15.932,-31.038 -4.249,-68.988 24.748,-87.823 -30.317,-20.013 -39.56,-61.218 -19.373,-92.509 18.913,-29.316 57.621,-38.173 88.431,-22.479 2.173,-36.262 33.236,-64.868 70.428,-63.032 34.846,1.721 61.87,30.814 63.683,65.344 32.49,-16.249 72.796,-3.651 89.801,29.477 15.933,31.037 4.25,68.988 -24.747,87.823"
       style="fill:#35a67b;fill-opacity:1;fill-rule:nonzero;stroke:none"
       transform="matrix(2.3161681,0,0,-2.2766636,1070.9818,586.08546)"
       clip-path="url(#clipPath53)" />
  </g>
</svg>
